<?xml version="1.0" encoding="UTF-8"?>
<svg id="Layer_1" data-name="Layer 1" xmlns="http://www.w3.org/2000/svg" viewBox="0 0 361.73 134.71">
  <defs>
    <style>
      .cls-1 {
        fill: #473c7c;
      }

      .cls-2 {
        fill: #5a8bef;
      }

      .cls-3 {
        fill: #e6f3ff;
      }

      .cls-4 {
        fill: #88c7f9;
      }

      .cls-5 {
        fill: #342c58;
      }
    </style>
  </defs>
  <g>
    <g>
      <polygon class="cls-2" points="84.86 67.36 75.47 56.18 97.83 29.53 79.06 29.53 53.11 29.53 41.05 15.15 128.67 15.15 84.86 67.36"/>
      <polygon class="cls-2" points="66.08 89.74 53.11 105.2 41.05 119.58 128.67 119.58 114.29 133.96 10.21 133.96 56.7 78.55 66.08 89.74"/>
    </g>
    <polygon class="cls-1" points="97.83 105.2 79.06 105.2 66.08 89.74 56.7 78.55 47.31 67.36 0 10.98 10.21 .77 97.83 105.2"/>
    <polygon class="cls-5" points="128.67 15.15 41.05 15.15 53.11 29.53 66.08 44.99 75.47 56.18 84.86 67.36 128.67 119.58 41.05 119.58 53.11 105.2 79.06 105.2 97.83 105.2 10.21 .77 114.29 .77 128.67 15.15"/>
    <g>
      <polygon class="cls-3" points="79.06 29.53 97.83 29.53 75.47 56.18 66.08 44.99 79.06 29.53"/>
      <polygon class="cls-3" points="56.7 78.55 10.21 133.96 0 123.75 47.31 67.36 56.7 78.55"/>
    </g>
  </g>
  <g>
    <path class="cls-4" d="M135.62,34.16l6.05-7.22c3.92,3.08,8.18,4.7,12.71,4.7,2.97,0,4.54-1.01,4.54-2.69v-.11c0-1.68-1.29-2.52-6.66-3.81-8.34-1.9-14.78-4.26-14.78-12.26v-.11c0-7.28,5.77-12.54,15.18-12.54,6.66,0,11.87,1.79,16.13,5.21l-5.43,7.67c-3.58-2.58-7.5-3.86-10.98-3.86-2.63,0-3.92,1.06-3.92,2.52v.11c0,1.79,1.34,2.58,6.83,3.81,8.96,1.96,14.56,4.87,14.56,12.21v.11c0,8.01-6.33,12.77-15.85,12.77-6.94,0-13.5-2.18-18.37-6.5Z"/>
    <path class="cls-4" d="M174.05.78h31.53v9.18h-20.78v5.99h18.82v8.57h-18.82v6.22h21.06v9.24h-31.81V.78Z"/>
    <path class="cls-4" d="M208.65,20.5v-.11c0-11.42,8.74-20.38,20.61-20.38,8.01,0,13.16,3.36,16.63,8.12l-8.18,6.33c-2.24-2.74-4.82-4.59-8.57-4.59-5.49,0-9.35,4.7-9.35,10.42v.11c0,5.88,3.86,10.47,9.35,10.47,4.09,0,6.5-1.9,8.85-4.76l8.18,5.82c-3.7,5.1-8.68,8.85-17.3,8.85-11.2,0-20.22-8.57-20.22-20.27Z"/>
    <path class="cls-4" d="M248.44,22.79V.78h10.98v21.78c0,5.66,2.86,8.34,7.22,8.34s7.28-2.58,7.28-8.06V.78h10.98v21.73c0,12.6-7.22,18.2-18.37,18.2s-18.09-5.66-18.09-17.92Z"/>
    <path class="cls-4" d="M290.67.78h18.54c5.99,0,10.14,1.57,12.77,4.2,2.3,2.3,3.47,5.26,3.47,9.13v.11c0,6.05-3.19,10.02-8.06,12.1l9.35,13.66h-12.49l-7.9-11.87h-4.82v11.87h-10.86V.78ZM308.76,19.6c3.64,0,5.82-1.79,5.82-4.65v-.11c0-3.14-2.3-4.7-5.88-4.7h-7.17v9.46h7.22Z"/>
    <path class="cls-4" d="M329.92.78h31.53v9.18h-20.78v5.99h18.82v8.57h-18.82v6.22h21.06v9.24h-31.81V.78Z"/>
    <path class="cls-4" d="M138.59,47.78h10.86v29.68h18.98v9.52h-29.85v-39.2Z"/>
    <path class="cls-4" d="M169.35,67.5v-.11c0-11.26,9.07-20.38,21.17-20.38s21.06,9.02,21.06,20.27v.11c0,11.26-9.07,20.38-21.17,20.38s-21.06-9.02-21.06-20.27ZM200.43,67.5v-.11c0-5.71-4.03-10.58-10.02-10.58s-9.97,4.82-9.97,10.47v.11c0,5.66,4.09,10.58,10.08,10.58s9.91-4.82,9.91-10.47Z"/>
    <path class="cls-4" d="M214.06,67.5v-.11c0-11.42,8.74-20.38,20.61-20.38,8.01,0,13.16,3.36,16.63,8.12l-8.18,6.33c-2.24-2.74-4.82-4.59-8.57-4.59-5.49,0-9.35,4.7-9.35,10.42v.11c0,5.88,3.86,10.47,9.35,10.47,4.09,0,6.5-1.9,8.85-4.76l8.18,5.82c-3.7,5.1-8.68,8.85-17.3,8.85-11.2,0-20.22-8.57-20.22-20.27Z"/>
    <path class="cls-4" d="M267.82,47.5h10.47l16.69,39.48h-11.65l-2.8-7.06h-15.18l-2.8,7.06h-11.37l16.63-39.48ZM277.33,71.47l-4.37-11.09-4.42,11.09h8.79Z"/>
    <path class="cls-4" d="M297.22,47.78h10.86v29.68h18.98v9.52h-29.85v-39.2Z"/>
    <path class="cls-4" d="M135.51,94.79h12.1l8.9,24.81,8.96-24.81h11.87l-15.9,39.48h-10.08l-15.85-39.48Z"/>
    <path class="cls-4" d="M188.87,94.5h10.47l16.69,39.48h-11.65l-2.8-7.06h-15.18l-2.8,7.06h-11.37l16.63-39.48ZM198.39,118.47l-4.37-11.09-4.42,11.09h8.79Z"/>
    <path class="cls-4" d="M216.02,116.79v-22.01h10.98v21.78c0,5.66,2.86,8.34,7.22,8.34s7.28-2.58,7.28-8.06v-22.06h10.98v21.73c0,12.6-7.22,18.2-18.37,18.2s-18.09-5.66-18.09-17.92Z"/>
    <path class="cls-4" d="M258.25,94.79h10.86v29.68h18.98v9.52h-29.85v-39.2Z"/>
    <path class="cls-4" d="M295.14,104.3h-11.7v-9.52h34.33v9.52h-11.76v29.68h-10.86v-29.68Z"/>
  </g>
</svg>