<?xml version="1.0" encoding="UTF-8"?>
<svg id="Layer_1" data-name="Layer 1" xmlns="http://www.w3.org/2000/svg" viewBox="0 0 128.67 134.71">
  <defs>
    <!-- Ruby Metallic Gradients -->
    <radialGradient id="rubyGradient1" cx="50%" cy="50%" r="50%">
      <stop offset="0%" style="stop-color:#c45a6f;stop-opacity:1" />
      <stop offset="60%" style="stop-color:#9d3a4f;stop-opacity:1" />
      <stop offset="100%" style="stop-color:#6e2736;stop-opacity:1" />
    </radialGradient>
    
    <radialGradient id="rubyGradient2" cx="50%" cy="50%" r="50%">
      <stop offset="0%" style="stop-color:#b34b60;stop-opacity:1" />
      <stop offset="70%" style="stop-color:#8c3143;stop-opacity:1" />
      <stop offset="100%" style="stop-color:#5f212e;stop-opacity:1" />
    </radialGradient>
    
    <!-- Titanium Metallic Gradients -->
    <radialGradient id="titaniumGradient1" cx="50%" cy="50%" r="50%">
      <stop offset="0%" style="stop-color:#6b7478;stop-opacity:1" />
      <stop offset="60%" style="stop-color:#4f5559;stop-opacity:1" />
      <stop offset="100%" style="stop-color:#2c3135;stop-opacity:1" />
    </radialGradient>
    
    <radialGradient id="titaniumGradient2" cx="50%" cy="50%" r="50%">
      <stop offset="0%" style="stop-color:#4a5054;stop-opacity:1" />
      <stop offset="70%" style="stop-color:#2e3338;stop-opacity:1" />
      <stop offset="100%" style="stop-color:#1f2326;stop-opacity:1" />
    </radialGradient>
    
    <style>
      .cls-1 {
        fill: url(#titaniumGradient1);
      }

      .cls-2 {
        fill: url(#rubyGradient1);
      }

      .cls-3 {
        fill: url(#titaniumGradient2);
      }

      .cls-4 {
        fill: url(#titaniumGradient2);
      }

      .cls-5 {
        fill: url(#rubyGradient2);
      }
    </style>
  </defs>
  <g>
    <g>
      <polygon class="cls-4" points="84.86 67.36 75.47 56.18 97.83 29.53 79.06 29.53 53.11 29.53 41.05 15.15 128.67 15.15 84.86 67.36"/>
      <polygon class="cls-4" points="66.08 89.74 53.11 105.19 41.05 119.58 128.67 119.58 114.29 133.96 10.21 133.96 56.7 78.55 66.08 89.74"/>
    </g>
    <polygon class="cls-5" points="97.83 105.19 79.06 105.19 66.08 89.74 56.7 78.55 47.31 67.36 0 10.98 10.21 .77 97.83 105.19"/>
    <polygon class="cls-2" points="128.67 15.15 41.05 15.15 53.11 29.53 66.08 44.99 75.47 56.18 84.86 67.36 128.67 119.58 41.05 119.58 53.11 105.19 79.06 105.19 97.83 105.19 10.21 .77 114.29 .77 128.67 15.15"/>
    <g>
      <polygon class="cls-1" points="79.06 29.53 97.83 29.53 75.47 56.18 66.08 44.99 79.06 29.53"/>
      <polygon class="cls-1" points="56.7 78.55 10.21 133.96 0 123.75 47.31 67.36 56.7 78.55"/>
    </g>
  </g>
</svg>

